<svg xmlns="http://www.w3.org/2000/svg" xmlns:xlink="http://www.w3.org/1999/xlink" width="24" height="24" viewBox="0 0 24 24" version="1.1"><script xmlns=""/>
    <title>Icon/24x24px/MarkSix</title>
    <defs>
        <path d="M11,0 C17.0751322,0 22,4.92486775 22,11 C22,17.0751322 17.0751322,22 11,22 C4.92486775,22 0,17.0751322 0,11 C0,4.92486775 4.92486775,0 11,0 Z M11,1.77485691 C9.87942814,1.77697586 8.76888656,1.9860593 7.72426471,2.39158485 C7.74742236,2.6752574 7.68270264,3.02590133 7.59283088,3.29595588 C7.43306762,3.82832978 7.16837195,4.32334507 6.81433824,4.75183824 C6.51498275,5.12450869 6.17597928,5.46351216 5.80330882,5.76286765 C5.4693919,6.05350777 5.10298805,6.30456226 4.71139706,6.51102941 C4.34689991,6.71492917 3.95027291,6.8551163 3.53860294,6.92555147 C3.2579283,6.9708579 2.97340557,6.98779378 2.68933824,6.97610294 C1.42522491,9.52400481 1.42522491,12.5164364 2.68933824,15.0643382 C2.98155433,15.0303943 3.27671773,15.0303943 3.56893382,15.0643382 C3.97937915,15.1394243 4.37526084,15.279348 4.74172794,15.4788603 C5.13609285,15.6847682 5.50295094,15.9395308 5.83363971,16.2371324 C6.20631016,16.5364878 6.54531363,16.8754913 6.84466912,17.2481618 C7.20151692,17.6747613 7.46653597,18.1703814 7.62316176,18.7040441 C7.72808205,18.9916415 7.76274596,19.3001503 7.72426471,19.6038603 L7.66246385,19.6746324 C9.84239136,20.5210553 12.2645113,20.4957118 14.4262506,19.6038603 C14.4381119,19.3786691 14.4933338,19.1551784 14.5487132,18.9365809 C14.6837235,18.4662739 14.9029619,18.0243716 15.1957721,17.6323529 C15.4866597,17.1977861 15.8258311,16.7975638 16.2068015,16.4393382 C16.6069801,16.0457234 17.0721546,15.7242058 17.5818015,15.4889706 C18.0763887,15.2721717 18.6089751,15.1553463 19.1488971,15.1452206 L19.3546008,15.1452206 C20.7622735,12.3358916 20.6208508,8.99908052 18.9805199,6.31893382 L18.8354779,6.31893382 C18.300196,6.35008133 17.7640637,6.27447294 17.2582721,6.09650735 C16.7328408,5.89683643 16.2468175,5.60590698 15.8226103,5.23713235 C15.4084545,4.91257344 15.0350369,4.53915583 14.7104779,4.125 C14.3862529,3.7583686 14.1356723,3.33272495 13.9724265,2.87132353 C13.911717,2.68692368 13.8980591,2.43221708 13.8713235,2.23993044 C12.9448094,1.9341323 11.9756719,1.77715932 11,1.77485691 Z M12.546875,6.30882353 L12.546875,7.82536765 L12.4356618,7.82536765 C11.8470547,7.79755555 11.2729594,8.01329836 10.8483456,8.421875 C10.4256504,8.88370881 10.1725236,9.47552635 10.1305147,10.1001838 C10.4832414,9.67291154 11.0122564,9.43075678 11.5661765,9.44301471 C12.2101869,9.42871646 12.8152767,9.75040977 13.1636029,10.2922794 C13.5953341,10.9695579 13.8039462,11.7651128 13.7601103,12.5670956 C13.7706885,13.1320055 13.6531644,13.6919731 13.4163603,14.2049632 C13.2113718,14.660949 12.8819839,15.0499071 12.4659926,15.3272059 C12.0517865,15.5984162 11.5658105,15.7392788 11.0707721,15.7316176 C10.2693287,15.7574164 9.50894022,15.3772222 9.04871324,14.7205882 C8.5097134,13.9273185 8.24679845,12.978693 8.30055147,12.0211397 L8.30055147,11.3639706 C8.27912534,10.4514602 8.44069819,9.54390207 8.77573529,8.69485294 C9.05295839,7.98705803 9.53085443,7.37563221 10.1507353,6.93566176 C10.7728202,6.52129773 11.5063315,6.30618142 12.2536765,6.31893382 L12.546875,6.30882353 Z M11.0606618,10.9191176 C10.8468962,10.9151907 10.640071,10.9950181 10.484375,11.1415441 C10.3270345,11.2847793 10.2087381,11.4657032 10.140625,11.6672794 L10.140625,12.3143382 C10.1067363,12.8138904 10.1970452,13.3140625 10.4034926,13.7702206 C10.5093953,14.0555306 10.7816068,14.244849 11.0859375,14.244849 C11.3902682,14.244849 11.6624797,14.0555306 11.7683824,13.7702206 C11.9550543,13.4010243 12.0454721,12.9906669 12.03125,12.5772059 C12.048614,12.1558179 11.9544501,11.7373116 11.7582721,11.3639706 C11.626644,11.0974149 11.3578658,10.9260201 11.0606618,10.9191176 Z" id="path-1"/>
    </defs>
    <g id="Asset" stroke="none" stroke-width="1" fill="none" fill-rule="evenodd">
        <g id="Group">
            <rect id="Rectangle" x="0" y="0" width="24" height="24"/>
            <g id="Icon-MarkSix" transform="translate(1.000000, 1.000000)">
                <mask id="mask-2" fill="white">
                    <use xlink:href="#path-1"/>
                </mask>
                <use id="Combined-Shape" fill="#166434" fill-rule="nonzero" xlink:href="#path-1"/>
            </g>
        </g>
    </g>
<script xmlns=""/><script xmlns=""/></svg>